Inglourious Basterds (2009) 1080P AC3+DTS Eng-NLSub


PLOT

In Nazi-occupied France during World War II, a group of 
Jewish-American soldiers known as "The Basterds" are chosen specifically 
to spread fear throughout the Third Reich by scalping and brutally killing Nazis.


MM:     http://www.moviemeter.nl/film/53273

IMDB:    http://www.imdb.com/title/tt0361748/

INFO

Source.....: 1080P BluRay 
FRAME RATE.: 23.976Fps 
VIDEO .....: X264
AUDIO 1....: DTS
AUDIO 2....: AC3
RESOLUTION.: 1920x800
RUNTIME....: 153 MINS 
GENERE.....: Drama | Thriller | War
LANGUAGE...: English
SUBTITLES..: English & Dutch

Thanks To Bradje

Enjoy This Nice Release

PLAYER INFO


   General
      Complete name : Inglourious.Basterds.2009.1080P.X264.AC3.DTS.Eng.NLSub.mkv
      Format : Matroska
      File size : 8.63 GiB
      Duration : 2h 32mn
      Overall bit rate : 8 080 Kbps
      Encoded date : UTC 2010-09-17 20:25:05
      Writing application : mkvmerge v3.3.0 ('Language') built on Mar 24 2010 14:59:24
      Writing library : libebml v0.8.0 + libmatroska v0.9.0
   Video #1
      ID : 1
      Format : AVC
      Format/Info : Advanced Video Codec
      Format profile : High@L4.1
      Format settings, CABAC : Yes
      Format settings, ReFrames : 5 frames
      Muxing mode : Container profile=Unknown@4.1
      Codec ID : V_MPEG4/ISO/AVC
      Duration : 2h 32mn
      Bit rate : 5 769 Kbps
      Nominal bit rate : 5 928 Kbps
      Width : 1 920 pixels
      Height : 800 pixels
      Display aspect ratio : 2.40:1
      Frame rate : 23.976 fps
      Resolution : 24 bits
      Colorimetry : 4:2:0
      Scan type : Progressive
      Bits/(Pixel*Frame) : 0.157
      Stream size : 6.15 GiB (71%)
      Title : x264
      Writing library : x264 core 78 r1318kGIT fe83a90
      Encoding settings : cabac=1 / ref=5 / deblock=1:-3:-2 / analyse=0x3:0x113 / 
me=umh / subme=10 / psy=1 / psy_rd=1.0:0.0 / mixed_ref=1 / me_range=24 / chroma_me=1 / 
trellis=2 / 8x8dct=1 / cqm=0 / deadzone=21,11 / chroma_qp_offset=-2 / threads=3 / nr=0 / 
decimate=1 / mbaff=0 / constrained_intra=0 / bframes=6 / b_pyramid=2 / b_adapt=2 / 
b_bias=0 / direct=3 / wpredb=1 / keyint=250 / keyint_min=25 / scenecut=40 / rc_lookahead=0 / 
rc=2pass / mbtree=0 / bitrate=5928 / ratetol=1.0 / qcomp=0.60 / qpmin=10 / qpmax=51 / 
qpstep=4 / cplxblur=20.0 / qblur=0.5 / vbv_maxrate=24000 / vbv_bufsize=48000 / 
ip_ratio=1.40 / pb_ratio=1.30 / aq=1:1.20 / zones=215088,218996,q=29
      Language : English
   Audio #2
      ID : 2
      Format : AC-3
      Format/Info : Audio Coding 3
      Codec ID : A_AC3
      Duration : 2h 32mn
      Bit rate mode : Constant
      Bit rate : 640 Kbps
      Channel(s) : 6 channels
      Channel positions : Front: L C R, Surround: L R, LFE
      Sampling rate : 48.0 KHz
      Stream size : 700 MiB (8%)
      Title : AC3
      Language : English
   Audio #3
      ID : 3
      Format : DTS
      Format/Info : Digital Theater Systems
      Codec ID : A_DTS
      Duration : 2h 32mn
      Bit rate mode : Constant
      Bit rate : 1 510 Kbps
      Channel(s) : 6 channels
      Channel positions : Front: L C R, Surround: L R, LFE
      Sampling rate : 48.0 KHz
      Resolution : 24 bits
      Stream size : 1.61 GiB (19%)
      Title : DTS
      Language : English
   Text #4
      ID : 4
      Format : UTF-8
      Codec ID : S_TEXT/UTF8
      Codec ID/Info : UTF-8 Plain Text
      Title : Subtitles
      Language : Dutch
   Text #5
      ID : 5
      Format : UTF-8
      Codec ID : S_TEXT/UTF8
      Codec ID/Info : UTF-8 Plain Text
      Title : Subtitles
      Language : English